<svg width="30" height="30" viewBox="0 0 30 30" fill="none" xmlns="http://www.w3.org/2000/svg">
<g clip-path="url(#clip0_20531_3198)">
<path d="M15.6831 12.6733C17.1156 11.4295 18.8019 10.6653 20.5445 10.3669C18.9888 11.8962 18.0748 13.9611 17.9886 16.1409C17.9025 18.3206 18.6507 20.4512 20.0808 22.0985C21.5108 23.7458 23.5152 24.7859 25.6855 25.0068C27.8557 25.2277 30.0285 24.6128 31.7612 23.2874C31.2883 24.7554 30.4822 26.0942 29.4059 27.199C28.3297 28.3038 27.0125 29.1447 25.5573 29.6559C24.1021 30.1671 22.5484 30.3348 21.0177 30.1458C19.487 29.9569 18.0207 29.4164 16.7335 28.5666C15.4463 27.7169 14.3732 26.5809 13.5979 25.2476C12.8227 23.9142 12.3663 22.4196 12.2646 20.8806C12.1629 19.3416 12.4186 17.7999 13.0116 16.3761C13.6046 14.9524 14.519 13.685 15.6831 12.6733Z" stroke="black" stroke-linecap="round" stroke-linejoin="round"/>
</g>
<defs>
<clipPath id="clip0_20531_3198">
<rect width="30" height="30" fill="white" transform="translate(0 19.6689) rotate(-40.9671)"/>
</clipPath>
</defs>
</svg>
